# xmcd CD database file
#
# Track frame offsets:
#	150
#	16685
#	32932
#
# Disc length: 659 seconds
#
# Revision: 0
# Processed by: cddbd v1.5.1PL0 Copyright (c) Steve Scherf et al.
# Submitted via: CDex 1.51
#
DISCID=18029103
DTITLE=布袋　寅泰 - 薔薇と雨
DYEAR=1994
DGENRE=Rock
TTITLE0=薔薇と雨（SINGLE　VERSION）
TTITLE1=CRYING　IN　CHAPEL
TTITLE2=薔薇と雨（ORIGINAL　KARAOKE）
EXTD=YEAR: 1994
EXTT0=
EXTT1=
EXTT2=
PLAYORDER=
